HIERARCHY
ROOT Hip
{
  OFFSET 0.0 0.0 0.0
  CHANNELS 6 Xposition Yposition Zposition Xrotation Yrotation Zrotation
  JOINT LowerSpine
  {
    OFFSET 0.0 0.061367 -0.03653
    CHANNELS 3 Xrotation Yrotation Zrotation
    JOINT MiddleSpine
    {
      OFFSET 0.0 0.056002 0.002633
      CHANNELS 3 Xrotation Yrotation Zrotation
      JOINT Chest
      {
        OFFSET 0.0 0.069296 -0.013882
        CHANNELS 3 Xrotation Yrotation Zrotation
        JOINT Neck
        {
          OFFSET 0.0 0.156156 -0.002923
          CHANNELS 3 Xrotation Yrotation Zrotation
          JOINT Head
          {
            OFFSET 0.0 0.088183 0.023986
            CHANNELS 3 Xrotation Yrotation Zrotation
            End Site
            {
              OFFSET 1e-06 0.123215 0.003678
            }
          }
        }
        JOINT LClavicle
        {
          OFFSET 0.014189 0.150698 0.046467
          CHANNELS 3 Xrotation Yrotation Zrotation
          JOINT LShoulder
          {
            OFFSET 0.082893 0.021616 -0.034976
            CHANNELS 3 Xrotation Yrotation Zrotation
            JOINT LForearm
            {
              OFFSET 0.195645 -0.000695 -0.001695
              CHANNELS 3 Xrotation Yrotation Zrotation
              JOINT LHand
              {
                OFFSET 0.163209 0.000474 -0.000977
                CHANNELS 3 Xrotation Yrotation Zrotation
                End Site
                {
                  OFFSET 0.0 0.006864 0.0
                }
              }
            }
          }
        }
        JOINT RClavicle
        {
          OFFSET -0.014189 0.150698 0.046467
          CHANNELS 3 Xrotation Yrotation Zrotation
          JOINT RShoulder
          {
            OFFSET -0.082908 0.021619 -0.034982
            CHANNELS 3 Xrotation Yrotation Zrotation
            JOINT RForearm
            {
              OFFSET -0.195645 -0.000695 -0.001695
              CHANNELS 3 Xrotation Yrotation Zrotation
              JOINT RHand
              {
                OFFSET -0.163209 0.000474 -0.000977
                CHANNELS 3 Xrotation Yrotation Zrotation
                End Site
                {
                  OFFSET 0.0 0.006864 0.0
                }
              }
            }
          }
        }
      }
    }
  }
  JOINT RThigh
  {
    OFFSET -0.072558 0.02774 -0.005953
    CHANNELS 3 Xrotation Yrotation Zrotation
    JOINT RShin
    {
      OFFSET -0.005253 -0.285537 0.0
      CHANNELS 3 Xrotation Yrotation Zrotation
      JOINT RFoot
      {
        OFFSET 0.0 -0.28038 0.0
        CHANNELS 3 Xrotation Yrotation Zrotation
        JOINT RToe
        {
          OFFSET 0.0 -0.030816 0.064441
          CHANNELS 3 Xrotation Yrotation Zrotation
          End Site
          {
            OFFSET 0.0 0.0 0.043231
          }
        }
      }
    }
  }
  JOINT LThigh
  {
    OFFSET 0.072557 0.027741 -0.005953
    CHANNELS 3 Xrotation Yrotation Zrotation
    JOINT LShin
    {
      OFFSET 0.005253 -0.285539 0.0
      CHANNELS 3 Xrotation Yrotation Zrotation
      JOINT LFoot
      {
        OFFSET 0.0 -0.28038 0.0
        CHANNELS 3 Xrotation Yrotation Zrotation
        JOINT LToe
        {
          OFFSET 0.0 -0.030816 0.064441
          CHANNELS 3 Xrotation Yrotation Zrotation
          End Site
          {
            OFFSET 0.0 0.0 0.043231
          }
        }
      }
    }
  }
}
MOTION
Frames: 15
Frame Time: 0.03333333333333333
-0.037012 0.553421 -0.110274 12.457658 1.7953 1.619063 1.984016 -0.333029 -0.394485 -1.027389 0.597852 0.105141 -8.196745 4.20124 -2.01282 1.495787 0.301701 0.558993 0.015141 -0.080719 -0.019095 -1.292211 -1.287484 -8.879854 15.883218 -22.165924 -54.387218 10.909986 -47.979378 0.358699 0.060436 0.100898 -0.075314 -1.824404 1.353338 12.616368 2.288368 37.737038 67.754784 3.496797 33.412827 2.401587 -0.034781 -0.07256 0.000255 -35.43924 -0.732812 -2.13973 30.249767 -1.862118 3.574277 -5.537916 -0.656974 -0.598747 -0.011758 0.216293 0.051955 -28.084908 9.602374 5.644247 16.276585 8.087412 -6.394496 -2.924451 -0.284217 -0.122585 0.046033 -0.062808 0.005899 
-0.036311 0.556279 -0.106483 10.954377 1.442932 1.849214 2.066434 -0.328202 -0.38864 -0.997182 0.640977 0.11722 -7.986036 4.319799 -1.936984 1.563741 0.292157 0.567602 0.014869 -0.078988 -0.019484 -1.349316 -1.366048 -8.829251 15.761153 -21.889063 -54.387997 10.997918 -48.748486 0.456772 0.058297 0.099252 -0.072557 -1.88165 1.40827 12.591591 1.968655 37.618492 67.963936 3.19943 33.714664 2.57116 -0.033257 -0.067628 0.000938 -33.016689 -0.83951 -2.454018 28.509153 -1.750399 3.555063 -5.45152 -0.6333 -0.576343 -0.006043 0.21151 0.048847 -25.27784 10.061471 5.141057 14.558273 8.184684 -6.363657 -2.954771 -0.304397 -0.1239 0.044331 -0.05624 0.009663 
-0.035335 0.558789 -0.102858 9.598966 1.055317 2.083757 2.141403 -0.328326 -0.388163 -0.983368 0.680778 0.130569 -7.841525 4.364309 -1.829564 1.628947 0.284877 0.563515 0.015517 -0.077944 -0.020912 -1.402892 -1.435189 -8.789921 15.673064 -21.488205 -54.38171 11.101061 -49.810482 0.570284 0.056208 0.098034 -0.070063 -1.914889 1.434816 12.59993 1.780784 37.390545 68.098145 2.987752 34.056458 2.721849 -0.032591 -0.063128 0.001601 -30.713926 -1.029323 -2.762569 26.633636 -1.696338 3.556793 -5.272787 -0.594936 -0.544033 -0.001694 0.203522 0.045012 -22.569736 10.600336 4.60408 12.973501 8.359803 -6.324652 -2.967698 -0.317301 -0.126075 0.041177 -0.046703 0.013028 
-0.034493 0.560585 -0.099905 8.581085 0.689041 2.341129 2.209967 -0.323534 -0.397788 -0.994688 0.700222 0.130761 -7.856564 4.324998 -1.745169 1.694169 0.277585 0.55837 0.015985 -0.072932 -0.02066 -1.452322 -1.48185 -8.761095 15.621014 -21.004404 -54.305187 11.152385 -50.874107 0.664749 0.052544 0.092372 -0.064595 -1.934098 1.468475 12.618239 1.688916 37.040424 68.24633 2.843189 34.296909 2.903869 -0.030051 -0.055175 0.002297 -28.739569 -1.346936 -3.009179 24.764488 -1.71708 3.57793 -5.075475 -0.543863 -0.497129 0.002723 0.188559 0.039618 -20.274286 11.188778 4.050852 11.654428 8.576884 -6.247334 -2.93099 -0.339866 -0.131343 0.034701 -0.032027 0.016852 
-0.033679 0.561266 -0.098495 7.831851 0.353141 2.52619 2.269078 -0.321968 -0.407331 -1.021758 0.708312 0.136677 -7.961353 4.276148 -1.651983 1.74557 0.27469 0.552703 0.016523 -0.069907 -0.020522 -1.490226 -1.518772 -8.741022 15.557706 -20.559019 -54.305733 11.075818 -51.68652 0.736863 0.049885 0.088139 -0.060537 -1.947437 1.497838 12.626719 1.643113 36.628384 68.406181 2.698239 34.3671 3.045989 -0.027855 -0.049361 0.002798 -27.230455 -1.625486 -3.118263 23.234179 -1.745029 3.591981 -4.927098 -0.494576 -0.455757 0.00637 0.177412 0.035392 -18.582584 11.577721 3.580555 10.698353 8.695731 -6.160625 -2.901683 -0.356991 -0.131702 0.02894 -0.019343 0.020099 
-0.034273 0.557731 -0.099815 7.065015 -0.108889 2.620398 2.295662 -0.323088 -0.378605 -1.027312 0.704194 0.17176 -7.930567 4.361686 -1.579303 1.744554 0.279936 0.567182 0.016279 -0.079854 -0.019953 -1.530132 -1.612044 -8.801932 15.57972 -20.799288 -54.43832 10.847014 -51.461334 0.748843 0.049917 0.086775 -0.061107 -2.013551 1.625584 12.543752 2.093795 36.158478 68.107071 2.749444 35.138367 3.092401 -0.042232 -0.043855 0.001146 -26.013054 -1.688698 -2.971749 22.616159 -1.697636 3.503656 -5.032709 -0.462498 -0.453001 0.000489 0.176925 0.040245 -17.45579 11.408892 3.452606 10.066946 8.292968 -6.00983 -2.92491 -0.383522 -0.11704 0.031779 -0.023414 0.017652 
-0.037638 0.55307 -0.099205 7.147039 -0.436175 2.572957 2.302021 -0.3331 -0.332112 -0.98704 0.701477 0.168052 -7.83231 4.409586 -1.863862 1.722576 0.311383 0.581995 0.019315 -0.109131 -0.024203 -1.518051 -1.662752 -8.801681 15.628265 -21.709597 -53.920105 11.025127 -50.593674 0.988297 0.056301 0.097449 -0.069447 -2.056115 1.674574 12.435997 2.180886 36.984936 67.699371 3.423079 35.210495 2.843044 -0.074819 -0.045877 -0.003444 -26.421881 -1.468225 -2.553506 23.250914 -1.570643 3.313387 -4.959412 -0.461996 -0.47524 -0.010423 0.195446 0.053466 -17.680279 11.389317 3.990895 10.554661 8.321331 -6.28856 -2.983536 -0.364005 -0.080924 0.04615 -0.048315 0.006081 
-0.045697 0.553242 -0.099707 8.426718 0.025651 2.399124 2.247658 -0.326529 -0.289261 -0.870158 0.706503 0.050799 -7.253089 4.258517 -2.670442 1.684489 0.359962 0.562965 0.023636 -0.141113 -0.030292 -1.415927 -1.583165 -8.638689 15.799579 -22.69313 -52.407417 11.480871 -50.570625 1.115595 0.064319 0.112845 -0.075069 -2.009551 1.517956 12.456778 1.403727 39.342434 67.418793 4.562762 33.652279 2.541759 -0.104076 -0.051616 -0.007682 -28.429579 -0.986996 -1.74702 24.585402 -1.418848 3.022499 -4.608111 -0.449244 -0.477006 -0.022446 0.213928 0.068062 -19.5723 11.758481 5.173381 12.511037 9.118262 -7.061594 -2.902374 -0.320859 -0.055177 0.059053 -0.072994 -0.006675 
-0.050912 0.556038 -0.103094 11.141662 0.865852 2.107271 2.075749 -0.325838 -0.26834 -0.776879 0.69727 -0.094917 -6.733084 3.95736 -3.593204 1.545768 0.404161 0.51831 0.028977 -0.153753 -0.036086 -1.198175 -1.325313 -8.40204 16.350107 -23.779844 -50.487694 12.132422 -51.054073 1.106273 0.072476 0.128192 -0.082743 -1.849529 1.213693 12.56657 0.761591 42.114986 67.076912 5.919356 31.644667 2.097726 -0.107699 -0.073394 -0.010268 -32.123791 -0.4136 -0.97784 26.740612 -1.368423 2.808969 -4.254858 -0.428397 -0.471919 -0.032304 0.238436 0.079256 -23.553621 12.0517 6.733859 15.808213 10.299839 -7.975609 -2.71618 -0.288743 -0.052428 0.071139 -0.093225 -0.017803 
-0.05347 0.557169 -0.108592 14.533633 1.620206 1.598805 1.858428 -0.326972 -0.251846 -0.692311 0.682009 -0.201442 -6.314556 3.711099 -4.267661 1.360774 0.426131 0.464164 0.033357 -0.153581 -0.039796 -0.947894 -0.98693 -8.362359 16.755791 -25.182554 -48.778511 12.554672 -50.84288 1.017538 0.080451 0.140533 -0.091509 -1.618739 0.898542 12.652767 0.30515 44.236778 66.658295 6.973828 30.195915 1.676254 -0.096987 -0.103568 -0.011602 -36.797588 0.056531 -0.286859 29.357143 -1.421775 2.696963 -4.054848 -0.435331 -0.472931 -0.034325 0.266642 0.087239 -28.69689 11.513724 8.148934 19.633282 11.041107 -8.628747 -2.553192 -0.235645 -0.049432 0.08321 -0.110915 -0.025593 
-0.053986 0.557607 -0.11298 17.596157 2.105716 1.027356 1.648739 -0.336147 -0.232957 -0.601098 0.670377 -0.25594 -5.874012 3.503918 -4.657142 1.183967 0.42895 0.417377 0.035757 -0.148463 -0.042499 -0.717829 -0.722989 -8.480651 16.964193 -26.554926 -47.468338 12.77475 -50.129005 0.975552 0.086153 0.148346 -0.098228 -1.411798 0.659506 12.733802 0.329741 45.552895 66.000214 7.573822 29.622684 1.481189 -0.08366 -0.129346 -0.012149 -41.193134 0.371111 0.345609 31.877941 -1.461715 2.609424 -4.031044 -0.462765 -0.486592 -0.034714 0.290292 0.093043 -33.650673 10.630388 9.219708 23.337372 11.342157 -9.010588 -2.473169 -0.156252 -0.032451 0.093017 -0.124808 -0.02978 
-0.053575 0.55771 -0.116867 20.0849 2.273281 0.486526 1.462756 -0.348111 -0.200459 -0.517877 0.648365 -0.27796 -5.488307 3.346374 -4.942176 1.027431 0.429965 0.375657 0.039141 -0.15755 -0.045285 -0.55247 -0.581775 -8.634051 17.25869 -27.64147 -46.278656 13.042189 -49.378254 1.02044 0.093647 0.159257 -0.107859 -1.273592 0.47531 12.757248 1.007085 46.335583 65.004082 8.42019 29.853401 1.334692 -0.088767 -0.145914 -0.015178 -45.152855 0.582669 0.965612 34.062286 -1.526798 2.529629 -4.068393 -0.498824 -0.525818 -0.041359 0.310925 0.101787 -38.072697 9.642058 10.126968 26.696363 11.286844 -9.309817 -2.415373 -0.124977 -0.011852 0.107187 -0.144008 -0.036948 
-0.052718 0.557242 -0.120385 22.257681 2.358225 0.048236 1.302873 -0.360537 -0.161977 -0.492248 0.601559 -0.282479 -5.338034 3.162697 -5.191098 0.883703 0.426599 0.342072 0.042057 -0.169266 -0.047268 -0.427974 -0.487086 -8.787085 17.565086 -28.395973 -45.385609 13.178038 -48.665211 1.010582 0.100159 0.16919 -0.116626 -1.166308 0.347506 12.773183 1.897616 46.785202 64.08918 9.100044 30.179171 1.248163 -0.097318 -0.156392 -0.018461 -48.696396 0.831181 1.441927 35.91856 -1.553584 2.445333 -4.137378 -0.537913 -0.564558 -0.047414 0.326699 0.108608 -42.026566 8.741907 10.775372 29.541348 11.104282 -9.468411 -2.412781 -0.106816 0.007183 0.118429 -0.15952 -0.043464 
-0.051306 0.555854 -0.12454 24.470554 2.403843 -0.328106 1.14671 -0.362406 -0.111476 -0.503581 0.54162 -0.259664 -5.395318 2.954165 -5.381046 0.749835 0.422975 0.31076 0.044599 -0.182444 -0.048175 -0.326784 -0.441237 -8.963045 17.863535 -29.016693 -44.607082 13.460569 -48.171368 0.982934 0.106342 0.178042 -0.124927 -1.090241 0.267516 12.802079 2.873026 46.908928 63.324329 9.518538 30.460714 1.273862 -0.106415 -0.163931 -0.021698 -52.325832 1.099679 1.828431 37.650848 -1.560694 2.352972 -4.252501 -0.577067 -0.608957 -0.050938 0.342248 0.115497 -46.076771 7.776367 11.213576 32.312496 10.806195 -9.580465 -2.451021 -0.087343 0.028362 0.12735 -0.174331 -0.050903 
-0.050163 0.553488 -0.128685 26.844023 2.511899 -0.530139 0.984701 -0.352005 -0.065166 -0.546172 0.486361 -0.258808 -5.48208 2.724589 -5.501356 0.627776 0.417019 0.28653 0.044764 -0.189117 -0.047899 -0.23691 -0.39516 -9.169092 18.321505 -29.46158 -43.747841 13.901387 -47.987019 0.935739 0.107946 0.18081 -0.127734 -1.012758 0.203192 12.872794 3.936203 46.931339 62.612503 9.848188 30.75819 1.399714 -0.110223 -0.1663 -0.023713 -56.286667 1.297103 2.038991 39.604046 -1.557832 2.268803 -4.337379 -0.61231 -0.638135 -0.051325 0.351522 0.120058 -50.145454 7.092246 11.482533 34.878025 10.685248 -9.750516 -2.45109 -0.073309 0.042198 0.130275 -0.181829 -0.057065 
